# xmcd
#
# Track frame offsets:
#	150
#	9262
#	21037
#	33412
#	51502
#	62547
#	74645
#	90785
#	100642
#	115850
#
# Disc length: 1660 seconds
#
# Revision: 1
# Processed by: cddbd v1.5.1PL2 Copyright (c) Steve Scherf et al.
# Submitted via: audiograbber 1.83.01
#
DISCID=73067a0a
DTITLE=Rodney Dillard - Let the Rough Side Drag
DYEAR=1991
DGENRE=Country
TTITLE0=Radio Boogie
TTITLE1=It's Raining
TTITLE2=Dixieland
TTITLE3=Last Thing on My Mind
TTITLE4=Let the Rough Side Drag
TTITLE5=Sawin' on the Strings
TTITLE6=Daddy Was a Mover
TTITLE7=Blue Yodel
TTITLE8=Roustabout
TTITLE9=Heartbreak Mountain
EXTD=
EXTT0=
EXTT1=
EXTT2=
EXTT3=
EXTT4=
EXTT5=
EXTT6=
EXTT7=
EXTT8=
EXTT9=
PLAYORDER=
